<svg width="258" height="248" xmlns="http://www.w3.org/2000/svg" data-name="Layer 1">

 <g>
  <title>Layer 1</title>
  <ellipse id="svg_1" opacity="0.45" fill="#e6e6e6" ry="9.65" rx="129.1" cy="238.1708" cx="129.1"/>
  <path id="svg_2" fill="#68e1fd" d="m56.12,150.9508l43.79,0a5.47,5.47 0 0 1 5.46,5.73l-3.58,72.3a9.82,9.82 0 0 1 -9.81,9.33l-28.6,0a9.82,9.82 0 0 1 -9.82,-9.43l-2.87,-72.25a5.47,5.47 0 0 1 5.43,-5.68z"/>
  <rect id="svg_3" fill="#68e1fd" height="90.43" width="34.09" y="147.9108" x="167.39"/>
  <rect id="svg_4" fill="#68e1fd" height="90.43" width="26.17" y="147.9108" x="142.31"/>
  <rect id="svg_5" opacity="0.08" height="90.43" width="26.17" y="147.9108" x="142.31"/>
  <polyline id="svg_6" stroke-width="4" stroke-linejoin="round" stroke="#24285b" fill="none" points="70.30000305175781,218.82079887390137 64.58000183105469,136.33080863952637 38.02000427246094,140.8008098602295 "/>
  <path id="svg_7" fill="#68e1fd" d="m117.27,189.8308s-6.89,-16.2 6,-24.95l2.61,4.65s-7.57,1.49 -5.83,20.3l-2.78,0z"/>
  <path id="svg_8" opacity="0.08" d="m117.27,189.8308s-6.89,-16.2 6,-24.95l2.61,4.65s-7.57,1.49 -5.83,20.3l-2.78,0z"/>
  <path id="svg_9" opacity="0.44" fill="#fff" d="m57.63,177.3508l40.39,0l-1.7,49.1a6.14,6.14 0 0 1 -6.13,5.92l-24.22,0a6.13,6.13 0 0 1 -6.12,-5.85l-2.22,-49.17z"/>
  <path id="svg_10" opacity="0.08" d="m97.55,169.3708l-6.1,-0.73s-2.57,10.58 3.62,13.74c0,0 -12.05,8.1 -8.89,22.48s3.76,28.12 11.84,31.4a25.8,25.8 0 0 0 3,-3.94c1.71,-2.65 3,-48.84 3,-48.84l0.57,-13.39l-7.04,-0.72z"/>
  <path id="svg_11" fill="#24285b" d="m146.38,0.3608a25.75,25.75 0 0 0 -16.08,5.43a36.69,36.69 0 0 0 -9.46,11.22a36.53,36.53 0 0 0 -9.3,-11.35a25.7,25.7 0 0 0 -16,-5.66c-16.43,-0.12 -28.91,13.23 -29,31.05c-0.14,19.25 15.22,32.53 38.48,52.63c3.95,3.41 8.42,7.28 13.08,11.41a3.31,3.31 0 0 0 2.22,0.85a3.35,3.35 0 0 0 2.24,-0.82c4.71,-4.06 9.24,-7.86 13.24,-11.22c23.53,-19.77 39.08,-32.83 39.22,-52.08c0.1,-17.82 -12.19,-31.34 -28.64,-31.46z"/>
  <path id="svg_12" fill="#ffd200" d="m113.3,237.8008l0,0a15.42,15.42 0 0 1 10.08,-0.36l1.19,0.36a9.67,9.67 0 0 0 9.54,-2.26c5.9,-5.68 15.41,-17.46 14.38,-33.67c-1.17,-18.35 -12.62,-20.28 -21.81,-16.52a18.22,18.22 0 0 1 -13.93,-0.06c-4.43,-1.86 -10.18,-3 -15.15,0.19c-9,5.77 -9.42,36.77 7.53,51a8.16,8.16 0 0 0 8.17,1.32z"/>
  <path id="svg_13" opacity="0.43" fill="#fff" d="m141.61,195.9508a40,40 0 0 1 -2.16,22.33a2.27,2.27 0 0 1 -4.34,-0.52l-3.15,-20.12a4.9,4.9 0 0 1 5.66,-5.63l0.2,0a4.91,4.91 0 0 1 3.79,3.94z"/>
  <path id="svg_14" fill="#68e1fd" d="m116.23,174.1808s-2.36,-17.89 -21.16,-11.12c0,0 3.06,18.04 21.16,11.12z"/>
  <path id="svg_15" opacity="0.46" fill="#fff" d="m116.23,174.1808s-2.36,-17.89 -21.16,-11.12c0,0 3.06,18.04 21.16,11.12z"/>
  <polyline id="svg_16" stroke-width="4" stroke-linejoin="round" stroke-linecap="round" stroke="#ffd200" fill="none" points="60.21000671386719,50.86080741882324 104.6300048828125,50.86080741882324 111.40000915527344,31.260805130004883 121.66000366210938,67.61080741882324 132.4199981689453,31.260805130004883 137.8300018310547,51.5708065032959 187.64999389648438,51.5708065032959 "/>
  <polygon id="svg_17" fill="#68e1fd" points="142.30999755859375,147.91081047058105 156.77999877929688,124.29080009460449 168.47000122070312,147.91081047058105 142.30999755859375,147.91081047058105 "/>
  <polygon id="svg_18" fill="#68e1fd" points="156.77999877929688,124.29080009460449 191.3699951171875,124.29080009460449 201.48001098632812,147.91081047058105 167.38999938964844,147.91081047058105 156.77999877929688,124.29080009460449 "/>
  <rect id="svg_19" fill="#68e1fd" height="8.7" width="34.59" y="115.5908" x="156.78"/>
  <rect id="svg_20" opacity="0.46" fill="#fff" height="8.7" width="34.59" y="115.5908" x="156.78"/>
  <polygon id="svg_21" opacity="0.13" points="142.30999755859375,147.91081047058105 156.77999877929688,124.29080009460449 168.47000122070312,147.91081047058105 142.30999755859375,147.91081047058105 "/>
  <ellipse id="svg_22" opacity="0.46" fill="#fff" ry="16.69" rx="10.35" cy="185.2708" cx="184.42"/>
 </g>
</svg>